<svg xmlns="http://www.w3.org/2000/svg" viewBox="0 0 54.825 36.834">
  <g id="Group_3" data-name="Group 3" transform="translate(-425 -154.166)">
    <text id="PK" transform="translate(432 182)" fill="#00bf2d" font-size="23.333" font-family="SegoeUI, Segoe UI"><tspan x="0" y="0">PK</tspan></text>
    <path id="PK_-_Outline" data-name="PK - Outline" d="M27.688.5H23.682L17.624-6.674V.5H14.71V-16.838h2.914v6.828l5.855-6.828h3.729L19.752-8.5Zm-3.542-1h1.326l-7.058-8,6.558-7.336H23.939L17.976-8.885a4.036,4.036,0,0,0-.385.495l-.022.035.04.075a4.045,4.045,0,0,0,.376.486ZM15.71-.5h.914V-15.838H15.71ZM4.556.5H1.642V-16.838H6.631a6.428,6.428,0,0,1,4.393,1.4,5.053,5.053,0,0,1,1.61,3.975,5.454,5.454,0,0,1-1.761,4.172A6.624,6.624,0,0,1,6.209-5.675H4.556ZM2.642-.5h.914V-6.675H6.209a5.663,5.663,0,0,0,3.984-1.348,4.434,4.434,0,0,0,1.44-3.438,4.047,4.047,0,0,0-1.273-3.226,5.476,5.476,0,0,0-3.73-1.15H2.642ZM6.061-7.407H3.556v-7.7H6.3c3.577,0,4.328,2.031,4.328,3.736A3.7,3.7,0,0,1,9.414-8.435,4.977,4.977,0,0,1,6.061-7.407Zm-1.505-1H6.061a4.033,4.033,0,0,0,2.7-.783,2.709,2.709,0,0,0,.87-2.18c0-1.174-.345-2.736-3.328-2.736H4.556Z" transform="translate(432 182)" fill="#00bf2d"/>
    <path id="Path_5" data-name="Path 5" d="M877.756,193.585a55.284,55.284,0,0,0-23.009,4.969c-.036,10.448.04,20.9,0,31.343,1.91-1.091,3.928-2.182,5.838-3.273.072-8.152-.076-16.3,0-24.455a52.744,52.744,0,0,1,34.234.168q.054,5.708.112,11.412c1.87-1.078,3.8-2.15,5.668-3.223.018-3.969-.018-7.943,0-11.916A55.288,55.288,0,0,0,877.756,193.585Z" transform="translate(-429.737 -39.418)" fill="#00bf2d"/>
    <text id="fan" transform="matrix(0.985, -0.174, 0.174, 0.985, 460.592, 184.979)" fill="#00bf2d" font-size="13" font-family="SegoeUI, Segoe UI"><tspan x="0" y="0">fan</tspan></text>
    <path id="fan_-_Outline" data-name="fan - Outline" d="M3.51-10.263a2.5,2.5,0,0,1,.945.151l.311.127v2.13L4.02-8.273a.888.888,0,0,0-.447-.107c-.236,0-.592,0-.592.877V-7H4.505v1.889H2.982V.5H.947V-5.111H-.164V-7H.947v-.554a2.68,2.68,0,0,1,.736-1.968A2.485,2.485,0,0,1,3.51-10.263ZM1.982-6V-7.5a2.485,2.485,0,0,1,.186-1.02,1.926,1.926,0,0,0-.221.969V-.5h.035Zm5.5-1.152c1.8,0,2.792,1.039,2.792,2.925V.5H8.234V.219A2.727,2.727,0,0,1,6.709.652,2.626,2.626,0,0,1,4.847,0a2.27,2.27,0,0,1-.707-1.73c0-1.03.447-2.319,2.577-2.615L8.2-4.55c-.1-.662-.467-.726-.81-.726a2.691,2.691,0,0,0-1.8.682l-.823.7V-6.318l.232-.147A4.538,4.538,0,0,1,7.484-7.152ZM9.275-.5V-4.228c0-.918-.248-1.478-.8-1.742a1.524,1.524,0,0,1,.315.293A2.428,2.428,0,0,1,9.234-4.12v1.479A2.6,2.6,0,0,1,9-1.516h.237V-.5ZM6.951-1.224a1.166,1.166,0,0,0,.913-.383,1.445,1.445,0,0,0,.371-1.034v-.074l-1,.138a2.037,2.037,0,0,0-.874.273c-.128.089-.154.322-.154.5a.5.5,0,0,0,.172.4A.829.829,0,0,0,6.951-1.224Zm-.959.77a1.6,1.6,0,0,1-.277-.2A1.5,1.5,0,0,1,5.207-1.8a1.919,1.919,0,0,1,.157-.811,1.572,1.572,0,0,0-.224.887,1.292,1.292,0,0,0,.391,1A1.278,1.278,0,0,0,5.991-.454Zm8.945-6.7a2.473,2.473,0,0,1,2.018.872,3.556,3.556,0,0,1,.678,2.307V.5H15.591V-3.707c0-1.569-.683-1.569-1.011-1.569a1.136,1.136,0,0,0-.915.415,1.68,1.68,0,0,0-.388,1.154V.5H11.237V-7h2.041v.331A2.859,2.859,0,0,1,14.936-7.152ZM16.632-.5V-3.974a2.613,2.613,0,0,0-.452-1.673,1.313,1.313,0,0,0-.707-.443c.581.275,1.118.924,1.118,2.383V-.5ZM12.278-6h-.041V-.5h.041V-3.707a2.882,2.882,0,0,1,.248-1.214h-.248Z" transform="matrix(0.985, -0.174, 0.174, 0.985, 460.592, 184.979)" fill="#00bf2d"/>
    <ellipse id="Ellipse_2" data-name="Ellipse 2" cx="13" cy="3.5" rx="13" ry="3.5" transform="translate(433 184)" fill="#00bf2d"/>
    <rect id="Rectangle_1" data-name="Rectangle 1" width="53" height="4" transform="translate(425 187)" fill="#00bf2d"/>
  </g>
</svg>
